<svg xmlns="http://www.w3.org/2000/svg" width="128" height="128" viewBox="0 0 128 128">
  <defs>
    <linearGradient id="bg" x1="0%" y1="0%" x2="100%" y2="100%">
      <stop offset="0%" style="stop-color:#4a90e2"/>
      <stop offset="100%" style="stop-color:#357abd"/>
    </linearGradient>
  </defs>
  <rect width="128" height="128" rx="16" fill="url(#bg)"/>
  <circle cx="42" cy="52" r="22" fill="#fff" opacity="0.95"/>
  <circle cx="86" cy="76" r="22" fill="#fff" opacity="0.9"/>
  <circle cx="64" cy="42" r="20" fill="#fff" opacity="0.85"/>
  <rect x="36" y="48" width="8" height="14" rx="2" fill="#4a90e2"/>
  <rect x="48" y="48" width="8" height="14" rx="2" fill="#4a90e2"/>
  <rect x="40" y="36" width="12" height="4" rx="2" fill="#4a90e2"/>
  <rect x="80" y="72" width="12" height="12" rx="2" fill="#e74c3c"/>
  <rect x="82" y="74" width="8" height="8" rx="1" fill="#fff"/>
  <path d="M60 34 L68 34 L68 40 L74 40 L74 48 L68 48 L68 54 L60 54 L60 48 L54 48 L54 40 L60 40 Z" fill="#2ecc71"/>
</svg>
